<svg width="24" height="25" viewBox="0 0 24 25" fill="none" xmlns="http://www.w3.org/2000/svg">
<path d="M14 15.5987L10 19.5987L14 23.5987" stroke="#33363F" stroke-width="2"/>
<path d="M18.0622 9.09872C18.6766 10.1629 19 11.37 19 12.5987C19 13.8275 18.6766 15.0346 18.0622 16.0987C17.4478 17.1629 16.5641 18.0465 15.5 18.6609C14.4359 19.2753 13.2288 19.5987 12 19.5987" stroke="#33363F" stroke-width="2" stroke-linecap="round"/>
<path d="M10 9.59872L14 5.59872L10 1.59872" stroke="#33363F" stroke-width="2"/>
<path d="M5.93782 16.0987C5.32344 15.0346 5 13.8275 5 12.5987C5 11.37 5.32344 10.1629 5.93782 9.09872C6.5522 8.03459 7.43587 7.15092 8.5 6.53655C9.56413 5.92217 10.7712 5.59872 12 5.59872" stroke="#33363F" stroke-width="2" stroke-linecap="round"/>
</svg>
