<svg width="40" height="40" viewBox="0 0 40 40" fill="none" xmlns="http://www.w3.org/2000/svg">
<rect width="40" height="40" rx="10" fill="black"/>
<path fill-rule="evenodd" clip-rule="evenodd" d="M11.082 20.6787C10.733 21.3579 10.4538 22.0894 10.2792 22.8556C10.1047 23.6045 10 24.3708 10 25.1545C10 27.9061 11.1169 30.3965 12.9319 32.2077C14.7469 34.0189 17.2426 35.1335 20 35.1335C22.7574 35.1335 25.2531 34.0189 27.0681 32.2077C28.8831 30.3965 30 27.9061 30 25.1545C30 24.3708 29.9127 23.6045 29.7382 22.873C29.5637 22.1068 29.2321 21.2882 28.9005 20.6265L20.5759 5.26602C20.4188 4.96996 20.1047 4.81322 19.7731 4.88288C19.459 4.96996 19.2845 5.2486 19.2321 5.5795L17.7836 14.6355C17.7487 14.8968 17.644 15.1406 17.3997 15.2625C17.1553 15.3844 16.8935 15.367 16.6667 15.2102L15.2531 14.2001C15.0611 14.0782 14.8691 14.0434 14.6597 14.0957C14.4503 14.1479 14.2932 14.2698 14.1885 14.4614L13.4031 16.0288L11.0995 20.6439L11.082 20.6787ZM14.5899 23.8657C14.6946 23.4303 14.8517 23.0124 15.0436 22.6466L15.829 21.0793C15.9337 20.8877 16.0908 20.7658 16.3002 20.7135C16.5096 20.6613 16.719 20.6961 16.8935 20.818L18.726 22.1242L21.0995 23.8309C21.3089 23.9876 21.5881 24.0051 21.8325 23.8831C22.0768 23.7612 22.2164 23.5348 22.2164 23.2562V20.3304V20.1737C22.2164 19.8428 22.4258 19.5467 22.7574 19.477C23.089 19.4074 23.4031 19.5641 23.5602 19.8602L24.9738 22.6815C25.1658 23.0646 25.3054 23.4652 25.4101 23.8831C25.4974 24.2837 25.5497 24.7017 25.5497 25.1545C25.5497 26.687 24.9389 28.0629 23.9267 29.073C22.9145 30.0656 21.5358 30.6926 20 30.6926C18.4642 30.6926 17.0855 30.083 16.0733 29.073C15.0785 28.0629 14.4503 26.687 14.4503 25.1545C14.4503 24.7017 14.4852 24.2663 14.5899 23.8657Z" fill="white"/>
</svg>
