<svg width="40" height="40" viewBox="0 0 40 40" fill="none" xmlns="http://www.w3.org/2000/svg">
<rect width="40" height="40" rx="10" fill="#5854EF"/>
<path d="M23.8232 10.5909H27.821V22.8707C27.821 24.2495 27.4917 25.456 26.8331 26.4901C26.1806 27.5241 25.2666 28.3305 24.0909 28.9091C22.9152 29.4815 21.5457 29.7678 19.9822 29.7678C18.4126 29.7678 17.04 29.4815 15.8643 28.9091C14.6887 28.3305 13.7746 27.5241 13.1222 26.4901C12.4697 25.456 12.1435 24.2495 12.1435 22.8707V10.5909H16.1413V22.5291C16.1413 23.2493 16.2983 23.8894 16.6122 24.4496C16.9323 25.0097 17.3816 25.4498 17.9602 25.7699C18.5388 26.09 19.2128 26.25 19.9822 26.25C20.7578 26.25 21.4318 26.09 22.0043 25.7699C22.5829 25.4498 23.0291 25.0097 23.343 24.4496C23.6631 23.8894 23.8232 23.2493 23.8232 22.5291V10.5909Z" fill="white"/>
</svg>
